<?xml version="1.0" encoding="utf-8"?>
<!-- Generator: Adobe Illustrator 18.0.0, SVG Export Plug-In . SVG Version: 6.00 Build 0)  -->
<!DOCTYPE svg PUBLIC "-//W3C//DTD SVG 1.1//EN" "http://www.w3.org/Graphics/SVG/1.1/DTD/svg11.dtd">
<svg version="1.1" id="Layer_1" xmlns="http://www.w3.org/2000/svg" xmlns:xlink="http://www.w3.org/1999/xlink" x="0px" y="0px"
	 viewBox="0 0 160 160"  xml:space="preserve">
<rect id="XMLID_25_" x="0" y="0" fill="transparent" width="160" height="160"/>
<g id="XMLID_1_">
	<path id="XMLID_24_" fill="#E8434F" d="M58.6,18.2l-3.5,0.9L59,33.4c1.1-0.4,2.3-0.7,3.5-0.9L58.6,18.2z">
		<animateTransform
            attributeType="xml"
            attributeName="transform"
            type="rotate"
            from="0 80 80"
            to="360 80 80"
            dur="7s"
            repeatCount="indefinite"
        />
    </path>
	<path id="XMLID_23_" fill="#E8434F" d="M72.7,31.6V16.9H69v14.8c0.6,0,1.3,0,1.9,0C71.5,31.6,72.1,31.6,72.7,31.6z">
		<animateTransform
            attributeType="xml"
            attributeName="transform"
            type="rotate"
            from="0 80 80"
            to="360 80 80"
            dur="7s"
            repeatCount="indefinite"
        />
    </path>
	<path id="XMLID_22_" fill="#E8434F" d="M45.4,23.2l-3,1.7l7.4,12.8c1-0.6,2-1.2,3-1.7L45.4,23.2z">
		<animateTransform
            attributeType="xml"
            attributeName="transform"
            type="rotate"
            from="0 80 80"
            to="360 80 80"
            dur="7s"
            repeatCount="indefinite"
        />
    </path>
	<path id="XMLID_21_" fill="#E8434F" d="M24.9,42.5l-1.6,2.7l12.8,7.4c0.5-0.9,1-1.8,1.6-2.7L24.9,42.5z">
		<animateTransform
            attributeType="xml"
            attributeName="transform"
            type="rotate"
            from="0 80 80"
            to="360 80 80"
            dur="7s"
            repeatCount="indefinite"
        />
    </path>
	<path id="XMLID_20_" fill="#E8434F" d="M44.3,42L33.8,31.5l-2.3,2.3L42,44.3C42.7,43.5,43.5,42.7,44.3,42z">
		<animateTransform
            attributeType="xml"
            attributeName="transform"
            type="rotate"
            from="0 80 80"
            to="360 80 80"
            dur="7s"
            repeatCount="indefinite"
        />
    </path>
	<path id="XMLID_19_" fill="#E8434F" d="M123.1,57.2l-0.2-0.6l-14.2,3.8c0.1,0.2,0.1,0.4,0.2,0.6L123.1,57.2z">
		<animateTransform
            attributeType="xml"
            attributeName="transform"
            type="rotate"
            from="0 80 80"
            to="360 80 80"
            dur="7s"
            repeatCount="indefinite"
        />
    </path>
	<path id="XMLID_18_" fill="#E8434F" d="M110.1,70.9c0,0.1,0,0.3,0,0.4h14.7v-0.8h-14.7C110.1,70.6,110.1,70.7,110.1,70.9z">
		<animateTransform
            attributeType="xml"
            attributeName="transform"
            type="rotate"
            from="0 80 80"
            to="360 80 80"
            dur="7s"
            repeatCount="indefinite"
        />
    </path>
	<path id="XMLID_17_" fill="#E8434F" d="M97.9,24.1l-0.1-0.1l-7.4,12.8c0,0,0.1,0.1,0.1,0.1L97.9,24.1z">
		<animateTransform
            attributeType="xml"
            attributeName="transform"
            type="rotate"
            from="0 80 80"
            to="360 80 80"
            dur="7s"
            repeatCount="indefinite"
        />
    </path>
	<path id="XMLID_16_" fill="#E8434F" d="M122.9,85.3l0.3-0.9l-14.2-3.8c-0.1,0.3-0.2,0.6-0.3,0.9L122.9,85.3z">
		<animateTransform
            attributeType="xml"
            attributeName="transform"
            type="rotate"
            from="0 80 80"
            to="360 80 80"
            dur="7s"
            repeatCount="indefinite"
        />
    </path>
	<path id="XMLID_15_" fill="#E8434F" d="M19.1,55.5l-0.8,2.8l14.3,3.8c0.2-1,0.5-1.9,0.8-2.8L19.1,55.5z">
		<animateTransform
            attributeType="xml"
            attributeName="transform"
            type="rotate"
            from="0 80 80"
            to="360 80 80"
            dur="7s"
            repeatCount="indefinite"
        />
    </path>
	<path id="XMLID_14_" fill="#E8434F" d="M98.7,43.2l10.4-10.4l-0.2-0.2L98.5,43C98.6,43.1,98.7,43.1,98.7,43.2z">
		<animateTransform
            attributeType="xml"
            attributeName="transform"
            type="rotate"
            from="0 80 80"
            to="360 80 80"
            dur="7s"
            repeatCount="indefinite"
        />
    </path>
	<path id="XMLID_13_" fill="#E8434F" d="M117.7,44.1l-0.2-0.4L104.7,51c0.1,0.1,0.2,0.3,0.2,0.4L117.7,44.1z">
		<animateTransform
            attributeType="xml"
            attributeName="transform"
            type="rotate"
            from="0 80 80"
            to="360 80 80"
            dur="7s"
            repeatCount="indefinite"
        />
    </path>
	<path id="XMLID_12_" fill="#E8434F" d="M97.2,118l1.3-0.7l-7.4-12.8c-0.4,0.3-0.8,0.5-1.3,0.7L97.2,118z">
		<animateTransform
            attributeType="xml"
            attributeName="transform"
            type="rotate"
            from="0 80 80"
            to="360 80 80"
            dur="7s"
            repeatCount="indefinite"
        />
    </path>
	<path id="XMLID_11_" fill="#E8434F" d="M84.1,123.2l1.6-0.4l-3.8-14.2c-0.5,0.2-1,0.3-1.6,0.4L84.1,123.2z">
		<animateTransform
            attributeType="xml"
            attributeName="transform"
            type="rotate"
            from="0 80 80"
            to="360 80 80"
            dur="7s"
            repeatCount="indefinite"
        />
    </path>
	<path id="XMLID_10_" fill="#E8434F" d="M98.2,99.1l10.4,10.4l0.9-0.9L99.1,98.2C98.8,98.5,98.5,98.8,98.2,99.1z">
		<animateTransform
            attributeType="xml"
            attributeName="transform"
            type="rotate"
            from="0 80 80"
            to="360 80 80"
            dur="7s"
            repeatCount="indefinite"
        />
    </path>
	<path id="XMLID_9_" fill="#E8434F" d="M70,110.1v14.8h1.8v-14.8c-0.3,0-0.6,0-0.9,0C70.6,110.1,70.3,110.1,70,110.1z">
		<animateTransform
            attributeType="xml"
            attributeName="transform"
            type="rotate"
            from="0 80 80"
            to="360 80 80"
            dur="7s"
            repeatCount="indefinite"
        />
    </path>
	<path id="XMLID_8_" fill="#E8434F" d="M117.3,98.4l0.6-1L105.2,90c-0.2,0.3-0.4,0.7-0.6,1L117.3,98.4z">
		<animateTransform
            attributeType="xml"
            attributeName="transform"
            type="rotate"
            from="0 80 80"
            to="360 80 80"
            dur="7s"
            repeatCount="indefinite"
        />
    </path>
	<path id="XMLID_7_" fill="#E8434F" d="M55.9,122.8l1.9,0.5l3.8-14.2c-0.6-0.2-1.3-0.3-1.9-0.5L55.9,122.8z">
		<animateTransform
            attributeType="xml"
            attributeName="transform"
            type="rotate"
            from="0 80 80"
            to="360 80 80"
            dur="7s"
            repeatCount="indefinite"
        />
    </path>
	<path id="XMLID_6_" fill="#E8434F" d="M42.3,97.8l-10.4,10.4l1.6,1.6l10.4-10.4C43.4,98.9,42.8,98.4,42.3,97.8z">
		<animateTransform
            attributeType="xml"
            attributeName="transform"
            type="rotate"
            from="0 80 80"
            to="360 80 80"
            dur="7s"
            repeatCount="indefinite"
        />
    </path>
	<path id="XMLID_5_" fill="#E8434F" d="M23.5,96.8l1.2,2.1l12.8-7.4c-0.4-0.7-0.8-1.4-1.2-2.1L23.5,96.8z">
		<animateTransform
            attributeType="xml"
            attributeName="transform"
            type="rotate"
            from="0 80 80"
            to="360 80 80"
            dur="7s"
            repeatCount="indefinite"
        />
    </path>
	<path id="XMLID_4_" fill="#E8434F" d="M18.4,83.6l0.7,2.5l14.2-3.8c-0.3-0.8-0.5-1.7-0.7-2.5L18.4,83.6z">
		<animateTransform
            attributeType="xml"
            attributeName="transform"
            type="rotate"
            from="0 80 80"
            to="360 80 80"
            dur="7s"
            repeatCount="indefinite"
        />
    </path>
	<path id="XMLID_3_" fill="#E8434F" d="M31.6,69.5H16.9v2.8h14.8c0-0.5,0-0.9,0-1.4S31.6,69.9,31.6,69.5z">
		<animateTransform
            attributeType="xml"
            attributeName="transform"
            type="rotate"
            from="0 80 80"
            to="360 80 80"
            dur="7s"
            repeatCount="indefinite"
        />
    </path>
	<path id="XMLID_2_" fill="#E8434F" d="M42.9,117.1l1.8,1.1l7.4-12.8c-0.6-0.3-1.2-0.7-1.8-1.1L42.9,117.1z">
		<animateTransform
            attributeType="xml"
            attributeName="transform"
            type="rotate"
            from="0 80 80"
            to="360 80 80"
            dur="7s"
            repeatCount="indefinite"
        />
    </path>

	
</g>
</svg>
